# xmcd CD database file
#
# Track frame offsets:
#	150
#	19622
#	31072
#	49860
#	66231
#	81268
#	99182
#	110385
#	130829
#	144516
#	161322
#	189945
#	206594
#	216103
#	227430
#
# Disc length: 3243 seconds
#
# Revision: 0
# Processed by: cddbd v1.5.2PL0 Copyright (c) Steve Scherf et al.
# Submitted via: CDex 1.51
#
DISCID=bb0ca90f
DTITLE=Mattew Lee - Live on stage
DYEAR=2008
DGENRE=Blues
TTITLE0=No Headstone on my grave
TTITLE1=Wild One
TTITLE2=Money
TTITLE3=Higt school confidential
TTITLE4=When the saints go marchin'in
TTITLE5=Georgia on my mind
TTITLE6=Blue Suede shoes
TTITLE7=Ol'whiskey Blues
TTITLE8=Halleluja i love her so
TTITLE9=Proud Mary
TTITLE10=What'd l say
TTITLE11=Satisfaction
TTITLE12=Your cheatin'heart
TTITLE13=Good Golly miss molly
TTITLE14=Great balls of fire
EXTD=YEAR: 2008
EXTT0=
EXTT1=
EXTT2=
EXTT3=
EXTT4=
EXTT5=
EXTT6=
EXTT7=
EXTT8=
EXTT9=
EXTT10=
EXTT11=
EXTT12=
EXTT13=
EXTT14=
PLAYORDER=
